PathFileType	4	(X/Y/Z)	Trial10_KneeL_markers_cropped.trc
DataRate	CameraRate	NumFrames	NumMarkers	Units	OrigDataRate	OrigDataStartFrame	OrigNumFrames
200	200	5	27	m	200	88	101
Frame#	Time	R_ASIS			L_ASIS			Sacral			L_Thigh_Superior			L_Thigh_Posterior			L_Thigh_Inferior			L_Thigh_Lateral			L_Shank_Posterior			L_Shank_Superior			L_Shank_Lateral			L_Shank_Inferior			L_Midfoot_Superior			L_Heel			L_Midfoot_Lateral			L_Toe			R_Thigh_Posterior			R_Thigh_Superior			R_Thigh_Lateral			R_Thigh_Inferior			R_Shank_Posterior			R_Shank_Superior			R_Shank_Lateral			R_Shank_Inferior			R_Midfoot_Superior			R_Heel			R_Midfoot_Lateral			R_Toe
		X1	Y1	Z1	X2	Y2	Z2	X3	Y3	Z3	X4	Y4	Z4	X5	Y5	Z5	X6	Y6	Z6	X7	Y7	Z7	X8	Y8	Z8	X9	Y9	Z9	X10	Y10	Z10	X11	Y11	Z11	X12	Y12	Z12	X13	Y13	Z13	X14	Y14	Z14	X15	Y15	Z15	X16	Y16	Z16	X17	Y17	Z17	X18	Y18	Z18	X19	Y19	Z19	X20	Y20	Z20	X21	Y21	Z21	X22	Y22	Z22	X23	Y23	Z23	X24	Y24	Z24	X25	Y25	Z25	X26	Y26	Z26	X27	Y27	Z27

89	   0.440	    1.14705602948005	    0.97238813741408	    0.66116632030653	    1.09148679978921	    0.99310782516789	    0.41371804401098	    0.93006740511506	    1.03189903713465	    0.59237192731966	    1.10286799459524	    0.78046678087404	    0.31500620911203	    1.03343778861056	    0.75291834664258	    0.32581557345562	    1.13408313407162	    0.69081405163278	    0.31148563288612	    1.05873424804363	    0.66642000449034	    0.32215177827240	    1.04739364130131	    0.43180844681398	    0.29401939553976	    1.11464781826550	    0.39786523995760	    0.28475519229069	    1.02674664362276	    0.36451826781567	    0.28272382408234	    1.08949298678746	    0.34551706551240	    0.27748790439874	    1.10464519228847	    0.12181723050479	    0.30980141281680	    0.93576070051421	    0.08372760539111	    0.36050330394738	    1.01923579038635	    0.06873055543112	    0.27451352292953	    1.21981361381217	    0.06386766769361	    0.27800326413234	    1.06657085923172	    0.75401748164494	    0.71797698597242	    1.13929372169068	    0.75476332791218	    0.69797752748834	    1.06876798732881	    0.65543764730611	    0.70185327199072	    1.13823075158973	    0.65964722856098	    0.68636891829485	    1.00412951165892	    0.33841348827021	    0.66119028392838	    1.07792307758087	    0.32594568535123	    0.64386102688425	    0.99742482296407	    0.27040576372207	    0.64036507570495	    1.06803223627496	    0.26936491250582	    0.62563451772044	    1.09074188842012	    0.08778811731475	    0.53714290101868	    0.92021732368632	    0.04470302041245	    0.50492092192821	    1.01569791329050	    0.01368349954922	    0.57994438652824	    1.21478709554480	    0.04081901762366	    0.54641733943608
90	   0.445	    1.14694561837233	    0.97238753692393	    0.66175671804504	    1.09148024444505	    0.99319199708043	    0.41419237630454	    0.92988119051882	    1.03181551671527	    0.59285577080979	    1.10193455244440	    0.78032521839341	    0.31530453130231	    1.03244360541707	    0.75297670117879	    0.32635207552594	    1.13290307507040	    0.69057631944983	    0.31186352057756	    1.05750192826000	    0.66639515345093	    0.32274171730599	    1.04789773468663	    0.42976671984800	    0.29376999997893	    1.11593418576978	    0.39745328461993	    0.28449301338124	    1.02890305576188	    0.36205403681198	    0.28221178642818	    1.09207267614670	    0.34445098464020	    0.27715872383394	    1.11267886883565	    0.12102030900438	    0.30863646394379	    0.94460883418785	    0.07899133000179	    0.35905415731381	    1.02851621386009	    0.06608745430624	    0.27317832669539	    1.22914678248784	    0.06575792722496	    0.27680043168732	    1.06638578978201	    0.75390594633499	    0.71832489161150	    1.13915809087001	    0.75470823556547	    0.69845167683639	    1.06864695399776	    0.65535197915651	    0.70227975049352	    1.13813457055598	    0.65958527171101	    0.68686808036712	    1.00401633065531	    0.33836928156159	    0.66153076813701	    1.07803503527913	    0.32596867271505	    0.64444840424743	    0.99735262453514	    0.27031137741944	    0.64074657085399	    1.06800551149335	    0.26925036664390	    0.62611677560488	    1.09072782966806	    0.08768731294093	    0.53728865606933	    0.92023371085057	    0.04473639717644	    0.50493634999077	    1.01566302733020	    0.01358051211150	    0.57998265792554	    1.21479836928803	    0.04074056669668	    0.54654380766558
91	   0.450	    1.14685475671582	    0.97236320338057	    0.66229240409173	    1.09149579963947	    0.99324035144940	    0.41462164247168	    0.92967828629444	    1.03170707557159	    0.59332084955296	    1.10098430335823	    0.78015494445918	    0.31559984184336	    1.03145069474971	    0.75299919602858	    0.32692298781251	    1.13171323073891	    0.69032697884983	    0.31219899438328	    1.05627261948289	    0.66635155491738	    0.32334169451882	    1.04842176288679	    0.42787480339658	    0.29355594017748	    1.11717075418975	    0.39713072669730	    0.28429500964666	    1.03100552402905	    0.35982450454804	    0.28172539995612	    1.09451738766305	    0.34356340844081	    0.27683397159962	    1.12028909403378	    0.12049715477245	    0.30757970739066	    0.95306226390933	    0.07468412792207	    0.35761193403848	    1.03739709151767	    0.06384079725601	    0.27184187098750	    1.23798711632253	    0.06782473956768	    0.27584309174230	    1.06619039831492	    0.75378094649026	    0.71872445899786	    1.13902708559506	    0.75465037939367	    0.69898511604999	    1.06856341414837	    0.65525198493567	    0.70273917704365	    1.13805267216797	    0.65950373177736	    0.68742468628855	    1.00401691207345	    0.33831302503759	    0.66193608583190	    1.07812922904332	    0.32593506157581	    0.64497651320483	    0.99739362430587	    0.27021172378404	    0.64126257569646	    1.06805977540812	    0.26912216527743	    0.62665416463337	    1.09071534799503	    0.08759659597291	    0.53744362480169	    0.92024662149464	    0.04476729287200	    0.50494944159521	    1.01563370967265	    0.01348255915835	    0.57996121249861	    1.21480011086082	    0.04071788603779	    0.54667485148450
92	   0.455	    1.14675568848777	    0.97230377910375	    0.66280646528078	    1.09157659011928	    0.99324268951079	    0.41504061068139	    0.92948992078993	    1.03157680363993	    0.59371358430592	    1.10009741976504	    0.77995050129382	    0.31585133132143	    1.03054295086252	    0.75299487812549	    0.32747637178090	    1.13059680675586	    0.69005107791878	    0.31244173079912	    1.05512388625246	    0.66627831585135	    0.32394194276379	    1.04896888277250	    0.42615614042974	    0.29342141605366	    1.11835889158158	    0.39693715823874	    0.28414241661415	    1.03304522966520	    0.35785050996835	    0.28130517862860	    1.09682274184569	    0.34284765930727	    0.27652691958901	    1.12744226809198	    0.12018823576310	    0.30657989676902	    0.96106266413321	    0.07085612698173	    0.35620707405861	    1.04578178503903	    0.06194943959019	    0.27056921127895	    1.24624629896429	    0.06997271582119	    0.27497190302737	    1.06604388230835	    0.75364503353715	    0.71914557529796	    1.13892527143856	    0.75459882009193	    0.69952241839745	    1.06852784523851	    0.65512319654781	    0.70320099467166	    1.13802866596624	    0.65942532976646	    0.68800418911936	    1.00405702542849	    0.33824902042715	    0.66234885533710	    1.07819532781173	    0.32587223549634	    0.64543432256890	    0.99749569138064	    0.27011537149671	    0.64185808578273	    1.06815360711912	    0.26901872919870	    0.62723274614087	    1.09071536360082	    0.08751349057018	    0.53755355930468	    0.92026372825174	    0.04480306537091	    0.50497329086622	    1.01560269344035	    0.01339042981905	    0.57997805487590	    1.21478743721030	    0.04072666908554	    0.54681372821417
93	   0.460	    1.14665399732205	    0.97222026889389	    0.66330736674673	    1.09175986580634	    0.99322410104979	    0.41544626661480	    0.92937157662453	    1.03139507350349	    0.59402656757703	    1.09938859513908	    0.77974297414650	    0.31599941614546	    1.02981037207897	    0.75298629767765	    0.32794832296656	    1.12964229932229	    0.68975945666541	    0.31260293212382	    1.05414918772242	    0.66619814551141	    0.32446752481292	    1.04953023907131	    0.42460544841577	    0.29331571569963	    1.11950452414498	    0.39682535207019	    0.28401592681145	    1.03499737343785	    0.35610994147117	    0.28095028253534	    1.09902574062919	    0.34232169682814	    0.27617558229687	    1.13408310415971	    0.12001035598885	    0.30562017438969	    0.96854935700635	    0.06752200708021	    0.35495601085419	    1.05353142578774	    0.06035957984186	    0.26943527026853	    1.25382283258892	    0.07205962195226	    0.27402863733674	    1.06595713108484	    0.75351787623629	    0.71952855118594	    1.13886236237578	    0.75454841483740	    0.69999718274443	    1.06853158936193	    0.65499801852377	    0.70360206020134	    1.13805493702756	    0.65936038749202	    0.68853879514904	    1.00409061500098	    0.33820685986818	    0.66274520513178	    1.07824712791202	    0.32585667661444	    0.64585212656719	    0.99759101628250	    0.27000407077096	    0.64244407108080	    1.06824059044114	    0.26895273426973	    0.62778084744579	    1.09072430101388	    0.08743999496399	    0.53759071350746	    0.92027531102838	    0.04483674091829	    0.50498754275986	    1.01558086182714	    0.01332255406565	    0.57998830026904	    1.21476004598635	    0.04077389217378	    0.54695147707293
